<svg width="1753" height="1745" viewBox="0 0 1753 1745" fill="none" xmlns="http://www.w3.org/2000/svg">
<path d="M38.3332 1740.94L14.576 1741.5C-13.2652 1727.84 11.9023 1693.16 40.9353 1666.8C110.431 1603.68 284.768 1499.87 376.277 1448.69L913.551 1148.16C992.256 1104.13 1068.65 1061.85 1142.86 1011.69C1190.57 979.434 1265.61 925.91 1265.7 873.38C1265.84 794.678 1182.43 756.184 1109.54 738.641C969.389 704.905 781.814 716.44 632.462 722.623C562.894 725.501 496.946 728.623 427.625 725.398C352.846 721.924 244.25 700.537 225.856 626.885C215.837 586.752 225.391 545.808 244.23 509.531C314.107 374.954 528.232 277.442 670.584 224.793C799.87 176.98 930.44 140.257 1065.87 114.673C1141.13 100.453 1211.55 88.9656 1271.87 140.912C1317.94 180.581 1361.84 249.571 1342.93 306.906C1331.48 341.611 1275.34 360.393 1232.76 360.528C1084.45 360.981 939.267 375.296 794.94 408.85C717.547 426.842 593.735 462.051 535.514 505.85C531.466 508.891 533.838 516.789 536.126 518.775C538.406 520.744 543.146 524.747 548.533 524.195L726.43 505.913C927.639 485.237 1294.46 475.151 1438.34 625.603C1504.01 694.267 1535.47 790.195 1522.37 884.868C1517.02 923.583 1497.91 957.542 1475.33 988.527C1431.92 1048.07 1376.18 1093.19 1312.73 1130.84C1239.91 1174.06 1166.36 1209.79 1089.3 1246.4L505.245 1523.84L95.275 1720.33C75.3714 1729.87 57.8037 1740.57 38.3332 1740.94Z" stroke="white" stroke-opacity="0.25" stroke-width="5" stroke-miterlimit="10"/>
<path d="M1602.2 2.5C1602.47 3.59993 1603.65 5.09297 1605.85 5.40269C1644.43 10.815 1678.71 25.5349 1707.03 51.7108C1760.78 101.386 1766.47 181.74 1714.07 236.324C1644.41 308.883 1520.99 310.579 1447.99 241.637C1389.85 186.736 1394.32 101.553 1451.95 49.8167C1481.85 22.9777 1517.01 10.6045 1555.22 2.5H1602.2Z" stroke="white" stroke-opacity="0.25" stroke-width="5" stroke-miterlimit="10"/>
</svg>
