<svg width="16" height="16" viewBox="0 0 16 16" fill="none" xmlns="http://www.w3.org/2000/svg">
<path d="M7.29388 10.0997H5.13522C4.97211 10.0997 4.83672 10.0458 4.72905 9.93804C4.62127 9.83038 4.56738 9.69499 4.56738 9.53188V6.46821C4.56738 6.3051 4.62127 6.16904 4.72905 6.06004C4.83672 5.95093 4.97211 5.89638 5.13522 5.89638H7.29388L9.80105 3.38921C9.9806 3.21232 10.1871 3.17154 10.4205 3.26688C10.654 3.36221 10.7707 3.5356 10.7707 3.78704V12.209C10.7707 12.4632 10.654 12.6379 10.4205 12.7332C10.1871 12.8285 9.9806 12.7864 9.80105 12.6069L7.29388 10.0997ZM5.70288 8.96421H7.79972L9.63122 10.729V5.28771L7.79972 7.03588H5.70288V8.96421Z" fill="white"/>
</svg>
