<svg width="16" height="16" viewBox="0 0 16 16" fill="none" xmlns="http://www.w3.org/2000/svg">
<path d="M14.9525 4.45556L13.2529 1.21982C13.1472 1.01862 12.8992 0.941563 12.6989 1.0476L7.99997 3.53608C7.79968 3.64215 7.72285 3.8912 7.82826 4.09251L8.26116 4.91905L6.80812 5.68645L6.37595 4.86131C6.27048 4.66003 6.02212 4.5824 5.82164 4.68876L3.55539 5.88996C1.14646 7.16565 0.267711 10.2063 1.67066 12.5909L1.36266 12.9002C0.883875 13.381 0.883738 14.1594 1.36266 14.6403C1.84025 15.1199 2.6173 15.1199 3.09492 14.6403L3.41407 14.3198C4.84713 15.1386 6.63867 15.186 8.16549 14.3087C10.1564 13.1644 10.9787 10.8326 10.377 8.78144C10.1649 8.0587 10.4907 7.2626 11.1943 6.8977L14.7799 5.01303C14.9811 4.90724 15.0585 4.65725 14.9525 4.45556ZM2.51507 14.0574C2.35716 14.2159 2.10034 14.2159 1.94249 14.0574C1.78447 13.8987 1.78441 13.6418 1.94249 13.4831L2.15336 13.2713C2.3294 13.4789 2.52166 13.67 2.72851 13.843L2.51507 14.0574ZM10.8154 6.16675C9.77874 6.70332 9.26345 7.90069 9.59015 9.01442C10.1113 10.791 9.35797 12.6739 7.7582 13.5933C5.82172 14.7061 3.38432 14.0166 2.31305 12.0599C1.24372 10.107 1.97462 7.65867 3.93795 6.61892L5.84124 5.61011L6.27314 6.43473C6.3786 6.63607 6.62655 6.71348 6.8269 6.60758L9.00598 5.45671C9.20633 5.35089 9.2836 5.10149 9.17808 4.90007L8.74495 4.07311L12.7187 1.96867L14.0349 4.47446L10.8154 6.16675Z" fill="#111FA3"/>
<path d="M8.21063 8.83457C7.52665 7.50286 5.88152 6.99594 4.52798 7.7249C3.18974 8.44563 2.65662 10.1137 3.33948 11.4433C4.02195 12.7721 5.66561 13.2836 7.02214 12.553C8.36034 11.8323 8.89346 10.1642 8.21063 8.83457ZM6.63459 11.8266C5.68065 12.3404 4.53968 11.983 4.06841 11.0654C3.5897 10.1333 3.9697 8.96066 4.91549 8.45129C5.86292 7.94096 7.00715 8.28861 7.48167 9.21251C7.96038 10.1446 7.58038 11.3173 6.63459 11.8266Z" fill="#111FA3"/>
<path d="M5.83462 2.94172C5.94017 3.14319 6.18821 3.22044 6.38855 3.11449C6.58901 3.00853 6.66598 2.75931 6.56052 2.55792L5.9542 1.40022C5.84871 1.19883 5.60072 1.12147 5.40027 1.22745C5.19981 1.33341 5.12284 1.58262 5.2283 1.78401L5.83462 2.94172Z" fill="#111FA3"/>
<path d="M4.03242 3.99117L5.27058 4.26131C5.49146 4.30958 5.71024 4.16885 5.75839 3.94609C5.80646 3.72368 5.66599 3.50424 5.44465 3.45595L4.2065 3.1858C3.98509 3.13742 3.76675 3.27865 3.71868 3.50103C3.67064 3.72343 3.8111 3.94287 4.03242 3.99117Z" fill="#111FA3"/>
<path d="M7.42792 3.06449C7.63734 3.15072 7.87701 3.05007 7.96287 2.83934L8.45022 1.64366C8.53605 1.43307 8.43572 1.19243 8.22611 1.1062C8.01644 1.01988 7.77699 1.12076 7.69115 1.33135L7.20381 2.52702C7.11797 2.73761 7.2183 2.97826 7.42792 3.06449Z" fill="#111FA3"/>
</svg>
