<svg width="16" height="16" viewBox="0 0 16 16" fill="none" xmlns="http://www.w3.org/2000/svg">
<path d="M1.48217 11.1098V4.89017C1.48217 4.71606 1.53883 4.57789 1.65217 4.47567C1.7655 4.37356 1.89811 4.3225 2.05 4.3225C2.11356 4.3225 2.17089 4.33217 2.222 4.3515C2.273 4.37083 2.32339 4.3985 2.37317 4.4345L6.84817 7.5275C6.93395 7.58839 6.99617 7.66028 7.03483 7.74317C7.0735 7.82594 7.09283 7.91156 7.09283 8C7.09283 8.08844 7.0735 8.17406 7.03483 8.25683C6.99617 8.33972 6.93395 8.41161 6.84817 8.4725L2.37317 11.5655C2.32339 11.6015 2.273 11.6292 2.222 11.6485C2.17089 11.6678 2.11356 11.6775 2.05 11.6775C1.89811 11.6775 1.7655 11.6264 1.65217 11.5243C1.53883 11.4221 1.48217 11.2839 1.48217 11.1098ZM8.48483 11.1098V4.89017C8.48483 4.71606 8.54145 4.57789 8.65467 4.47567C8.768 4.37356 8.90061 4.3225 9.0525 4.3225C9.11339 4.3225 9.17006 4.33217 9.2225 4.3515C9.27494 4.37083 9.326 4.3985 9.37567 4.4345L13.8467 7.5275C13.9351 7.58839 13.9987 7.66028 14.0373 7.74317C14.076 7.82594 14.0953 7.91156 14.0953 8C14.0953 8.08844 14.076 8.17406 14.0373 8.25683C13.9987 8.33972 13.9351 8.41161 13.8467 8.4725L9.37567 11.5655C9.326 11.6015 9.27494 11.6292 9.2225 11.6485C9.17006 11.6678 9.11339 11.6775 9.0525 11.6775C8.90061 11.6775 8.768 11.6264 8.65467 11.5243C8.54145 11.4221 8.48483 11.2839 8.48483 11.1098ZM2.62167 10.0155L5.53483 8L2.62167 5.9845V10.0155ZM9.62033 10.0155L12.5413 8L9.62033 5.9845V10.0155Z" fill="white"/>
</svg>
