<svg width="16" height="16" viewBox="0 0 16 16" fill="none" xmlns="http://www.w3.org/2000/svg">
<path d="M5.13522 10.0997H7.29388L9.80105 12.6069C9.9806 12.7864 10.1871 12.8285 10.4205 12.7332C10.654 12.6379 10.7707 12.4632 10.7707 12.209V3.78704C10.7707 3.5356 10.654 3.36221 10.4205 3.26688C10.1871 3.17154 9.9806 3.21232 9.80105 3.38921L7.29388 5.89638H5.13522C4.97211 5.89638 4.83672 5.95093 4.72905 6.06004C4.62127 6.16904 4.56738 6.3051 4.56738 6.46821V9.53188C4.56738 9.69499 4.62127 9.83038 4.72905 9.93804C4.83672 10.0458 4.97211 10.0997 5.13522 10.0997ZM7.79972 7.03588L9.63122 5.28771V10.729L7.79972 8.96421H5.70288V7.03588H7.79972Z" fill="white"/>
<path d="M12.2 6.2C12.6 6.9 12.8 7.7 12.8 8.5C12.8 9.3 12.6 10.1 12.2 10.8" stroke="white" stroke-width="0.9" stroke-linecap="round"/>
</svg>
