<svg width="803" height="503" viewBox="0 0 803 503" fill="none" xmlns="http://www.w3.org/2000/svg">
<path d="M401.5 501.5L401.5 1.5M1.5 399.736H127.214V304.934M127.214 304.934L127.214 198.067M127.214 304.934C135.72 298.653 142.612 290.566 147.356 281.299C152.099 272.033 154.567 261.836 154.567 251.5C154.567 241.165 152.099 230.968 147.356 221.701C142.612 212.435 135.72 204.347 127.214 198.067M127.214 198.067V103.265H1.5M801.5 103.265H675.786V198.067M675.786 198.067V304.934M675.786 198.067C667.28 204.347 660.388 212.435 655.644 221.701C650.901 230.968 648.433 241.165 648.433 251.501C648.433 261.836 650.901 272.033 655.644 281.3C660.388 290.566 667.28 298.654 675.786 304.934M675.786 304.934V399.736H801.5M16.7381 501.5C16.7381 497.6 15.1327 493.859 12.275 491.101C9.41726 488.343 5.54139 486.794 1.5 486.794M1.5 16.2059C5.54139 16.2059 9.41726 14.6565 12.275 11.8986C15.1327 9.14075 16.7381 5.40024 16.7381 1.5M786.262 1.5C786.262 5.40024 787.867 9.14075 790.725 11.8986C793.583 14.6565 797.459 16.2059 801.5 16.2059M801.5 486.794C797.459 486.794 793.583 488.343 790.725 491.101C787.867 493.859 786.262 497.6 786.262 501.5M1.5 501.5L1.5 1.5L801.5 1.5V501.5H1.5ZM401.5 184.221C440.002 184.221 471.214 214.343 471.214 251.5C471.214 288.657 440.002 318.779 401.5 318.779C362.998 318.779 331.786 288.657 331.786 251.5C331.786 214.343 362.998 184.221 401.5 184.221Z" stroke="white" stroke-opacity="0.75" stroke-width="3"/>
</svg>
