<svg width="191" height="30" viewBox="0 0 191 30" fill="none" xmlns="http://www.w3.org/2000/svg">
<path d="M36.8143 16.2173C36.2851 15.3391 35.0588 15.5273 33.9918 15.5102L33.1013 18.6352L34.7857 18.6124C36.0376 18.5297 36.948 17.489 36.8143 16.2173ZM38.0292 10.8313C37.6906 10.0558 36.5042 10.2668 35.4998 10.2411L34.7629 12.83C35.477 12.8614 36.2026 12.8643 36.8854 12.6333C37.6622 12.3681 38.1544 11.6724 38.0292 10.8313ZM38.4731 13.9934C39.7307 14.4781 40.368 15.6043 40.092 16.8674C39.6311 18.9745 38.5072 20.4856 36.3591 20.9931C35.5994 21.187 34.8511 21.1927 34.0516 21.244L28.7538 21.2497L32.6261 7.6351L37.6423 7.66076C38.5129 7.66646 39.338 7.78051 40.1233 8.10555C40.846 8.39353 41.3724 8.95807 41.4919 9.73361C41.5459 10.8028 41.1789 11.8435 40.4647 12.6248C39.9156 13.2435 39.2953 13.6569 38.4731 13.9934ZM49.8426 15.8951L44.8976 15.9008L44.246 18.2018L49.7715 18.2046L49.265 20.0465C49.0175 20.7622 48.4029 21.2526 47.6176 21.2526L39.7221 21.2497L43.5945 7.63795H52.5882L51.9907 9.70794C51.7005 10.2069 51.1884 10.4607 50.6108 10.532H46.434L45.754 12.9327L50.7076 12.9355L49.8426 15.8951ZM57.4963 19.9838C57.2772 20.7365 56.6882 21.2383 55.9342 21.2412L53.3308 21.2469L56.3781 10.5348L52.6338 10.532L53.4703 7.61799L64.7317 7.61514L63.9322 10.5291L60.1736 10.5377L57.4963 19.9838Z" fill="#F1C730"/>
<path d="M0 29.7778V29.621C0.110963 29.5953 0.116655 29.4756 0.167868 29.3758C0.674319 28.3864 3.77562 26.5074 5.05597 25.7861L15.9105 19.6645C17.6006 18.7122 20.3235 17.258 21.4473 15.9322C21.6892 15.6442 21.8599 15.285 21.8314 14.9029C21.7205 13.4174 19.9479 12.8073 18.531 12.5535C17.4356 12.3596 16.3657 12.257 15.239 12.2912L10.5046 12.4252C8.69501 12.4765 6.50419 12.6675 4.96208 11.9148C4.45847 11.6696 4.026 11.2761 3.90365 10.7173C3.32038 8.01718 7.03909 5.79037 9.32666 4.74967C12.556 3.27843 15.9731 2.28335 19.4727 1.73021C20.6848 1.53917 21.7688 1.98112 22.483 2.91917C23.2 3.86008 23.6609 5.12888 22.7618 5.72764C22.3549 5.99566 21.8798 6.14677 21.3648 6.15247C19.1939 6.16958 17.0884 6.3264 14.9574 6.73413C13.2332 7.06202 10.6924 7.69784 9.31527 8.61024C9.21 8.68152 9.20431 8.81838 9.25837 8.88396C9.28967 8.92387 9.38925 8.98375 9.48314 8.9752L12.6897 8.6473C14.6785 8.44487 16.6133 8.3964 18.5992 8.54466C20.0389 8.65301 21.3819 8.90962 22.7163 9.39148C24.6795 10.0986 25.9883 11.7323 26.2757 13.7938C26.4322 14.9257 26.2074 15.9465 25.5331 16.8931C24.8161 17.8996 23.8942 18.6979 22.8216 19.348C21.638 20.0608 20.4543 20.6596 19.1882 21.2612L1.32588 29.7807C0.819426 30.0202 0.270296 30.1228 0 29.7778Z" fill="#DB1D15"/>
<path d="M29.5079 4.07108C28.2958 5.25719 26.2957 5.2686 25.0466 4.17372C24.0963 3.34116 23.9967 1.98968 24.7962 1.04306C25.8916 -0.251397 28.1308 -0.336933 29.3799 0.763644C30.3672 1.63612 30.5151 3.0817 29.5079 4.07108Z" fill="#F1C730"/>
<path d="M76.637 15.1675C76.8801 15.4108 77.0746 15.7332 77.2204 16.1346C77.3784 16.5239 77.4878 16.895 77.5486 17.2478L78.3325 21.1528H74.6134L73.9936 17.5215C73.9328 17.193 73.8538 16.9497 73.7566 16.7916C73.6594 16.6334 73.5257 16.5239 73.3555 16.4631C73.1975 16.4023 73.0031 16.3779 72.7721 16.3901C72.5412 16.3901 72.2738 16.3901 71.97 16.3901L71.4231 19.3098C71.3623 19.6017 71.2407 19.8633 71.0584 20.0944C70.8883 20.3256 70.6817 20.5202 70.4386 20.6784C70.1955 20.8243 69.9281 20.9399 69.6364 21.0251C69.3569 21.1102 69.0835 21.1528 68.8161 21.1528H67.5399L70.1287 7.83183H74.7593C75.452 7.83183 76.1266 7.87441 76.7829 7.95957C77.4513 8.03256 78.0286 8.20896 78.5148 8.48876C79.001 8.75639 79.3595 9.14568 79.5904 9.65662C79.8213 10.1676 79.8578 10.8549 79.6998 11.7186C79.5296 12.5337 79.1772 13.2332 78.6424 13.8171C78.1077 14.4011 77.4392 14.8512 76.637 15.1675ZM74.0665 10.3683H73.155L72.4987 13.7442H73.2826C73.5743 13.7442 73.866 13.7198 74.1577 13.6712C74.4615 13.6103 74.741 13.5191 74.9963 13.3974C75.2515 13.2636 75.4703 13.0872 75.6526 12.8683C75.847 12.6371 75.9807 12.3451 76.0537 11.9924C76.1144 11.6517 76.0962 11.378 75.999 11.1712C75.9139 10.9522 75.7741 10.788 75.5797 10.6785C75.3852 10.5569 75.1543 10.4778 74.8869 10.4413C74.6195 10.3926 74.346 10.3683 74.0665 10.3683Z" fill="white"/>
<path d="M86.3221 21.1528H79.595L82.1837 7.85008H90.8798L90.5334 9.62013C90.4726 9.97292 90.2842 10.2406 89.9682 10.423C89.6644 10.5933 89.3545 10.6785 89.0385 10.6785H85.1553L84.6996 13.0325H89.5125L89.2937 14.0909C89.2329 14.3828 89.1175 14.6444 88.9473 14.8755C88.7772 15.0945 88.5706 15.2831 88.3275 15.4412C88.0966 15.5872 87.8413 15.7028 87.5618 15.7879C87.2944 15.8731 87.0331 15.9157 86.7779 15.9157H84.1344L83.6969 18.1784H89.0567L88.9109 18.8718C88.8744 19.0908 88.8319 19.2976 88.7832 19.4922C88.7346 19.6869 88.6374 19.8876 88.4916 20.0944C88.2363 20.4351 87.9021 20.6966 87.4889 20.8791C87.0878 21.0616 86.6989 21.1528 86.3221 21.1528Z" fill="white"/>
<path d="M93.6951 21.3353C92.2488 21.3353 90.9666 21.0007 89.8485 20.3316L90.4683 17.2113C90.9788 17.6005 91.5196 17.9229 92.0908 18.1784C92.6742 18.4217 93.3305 18.5434 94.0598 18.5434C94.2542 18.5434 94.4548 18.5312 94.6614 18.5069C94.8801 18.4704 95.0807 18.4095 95.263 18.3244C95.4575 18.2392 95.6215 18.1237 95.7552 17.9777C95.9011 17.8195 95.9983 17.6188 96.0469 17.3755C96.0712 17.2295 96.0712 17.0896 96.0469 16.9558C96.0348 16.8098 95.9861 16.6821 95.9011 16.5726C95.7917 16.4144 95.6458 16.2928 95.4635 16.2076C95.2812 16.1225 95.0928 16.0495 94.8984 15.9886C94.3636 15.8062 93.8471 15.5994 93.3488 15.3682C92.8626 15.1249 92.4372 14.8269 92.0726 14.4741C91.7201 14.1213 91.4588 13.7016 91.2887 13.215C91.1307 12.7162 91.1185 12.1262 91.2522 11.4449C91.3859 10.7393 91.6412 10.1432 92.0179 9.65662C92.3947 9.17001 92.8383 8.78072 93.3488 8.48876C93.8592 8.18462 94.4183 7.97173 95.026 7.85008C95.6458 7.71626 96.2596 7.64935 96.8673 7.64935C97.6087 7.64935 98.3197 7.71018 99.0003 7.83183C99.693 7.94132 100.362 8.13596 101.006 8.41576C100.981 8.54958 100.957 8.68948 100.933 8.83547C100.908 8.96928 100.884 9.1031 100.86 9.23692C100.811 9.46806 100.75 9.68095 100.678 9.8756C100.605 10.0702 100.507 10.2406 100.386 10.3865C100.276 10.5204 100.131 10.6298 99.9483 10.715C99.766 10.788 99.5411 10.8245 99.2737 10.8245C99.1157 10.8245 98.976 10.8062 98.8544 10.7697C98.4777 10.6603 98.0948 10.5751 97.7059 10.5143C97.3291 10.4413 96.9341 10.4048 96.5209 10.4048C96.3386 10.4048 96.1563 10.417 95.974 10.4413C95.7917 10.4656 95.6215 10.5204 95.4635 10.6055C95.3177 10.6785 95.1901 10.7819 95.0807 10.9157C94.9713 11.0495 94.8984 11.2259 94.8619 11.4449C94.789 11.8099 94.8801 12.0958 95.1354 12.3026C95.3906 12.5094 95.7248 12.6979 96.1381 12.8683C96.5513 13.0386 96.9949 13.221 97.4689 13.4157C97.9551 13.5982 98.3865 13.8476 98.7633 14.1639C99.1522 14.468 99.4439 14.8755 99.6384 15.3865C99.845 15.8852 99.8693 16.53 99.7113 17.3207C99.5533 18.1115 99.2798 18.7684 98.8909 19.2915C98.502 19.8025 98.0341 20.21 97.4871 20.5141C96.9402 20.8183 96.3386 21.0312 95.6823 21.1528C95.0381 21.2745 94.3758 21.3353 93.6951 21.3353Z" fill="white"/>
<path d="M104.747 16.8645L104.273 19.328C104.164 19.8998 103.829 20.356 103.27 20.6966C102.76 21.0007 102.231 21.1528 101.684 21.1528H100.39L102.979 7.83183H107.245C107.974 7.83183 108.691 7.88658 109.396 7.99606C110.101 8.09338 110.714 8.29411 111.237 8.59824C111.76 8.90238 112.149 9.33424 112.404 9.89384C112.659 10.4413 112.702 11.1651 112.531 12.0653C112.301 13.2332 111.839 14.2125 111.146 15.0033C110.465 15.794 109.517 16.3293 108.302 16.6091C107.682 16.7551 107.08 16.8341 106.497 16.8463C105.926 16.8585 105.342 16.8645 104.747 16.8645ZM106.935 10.3865H106.005L105.239 14.2733H106.169C106.509 14.2733 106.837 14.2429 107.153 14.1821C107.469 14.1091 107.761 13.9996 108.028 13.8536C108.296 13.6955 108.521 13.4887 108.703 13.2332C108.897 12.9656 109.031 12.6371 109.104 12.2478C109.177 11.8707 109.165 11.5605 109.068 11.3172C108.97 11.0739 108.818 10.8853 108.612 10.7515C108.405 10.6177 108.15 10.5264 107.846 10.4778C107.554 10.417 107.251 10.3865 106.935 10.3865Z" fill="white"/>
<path d="M117.541 21.3353C116.483 21.3353 115.584 21.1711 114.842 20.8426C114.101 20.5141 113.518 20.0518 113.092 19.4557C112.679 18.8597 112.418 18.1419 112.308 17.3025C112.199 16.4509 112.242 15.5142 112.436 14.4923C112.631 13.4704 112.946 12.5398 113.384 11.7004C113.822 10.8488 114.368 10.125 115.025 9.52889C115.681 8.93279 116.441 8.47051 117.304 8.14205C118.179 7.81358 119.145 7.64935 120.202 7.64935C121.272 7.64935 122.171 7.81358 122.9 8.14205C123.642 8.47051 124.219 8.93279 124.632 9.52889C125.058 10.125 125.319 10.8488 125.416 11.7004C125.526 12.5398 125.483 13.4704 125.289 14.4923C125.082 15.5142 124.76 16.4509 124.322 17.3025C123.897 18.1419 123.356 18.8597 122.7 19.4557C122.056 20.0518 121.302 20.5141 120.439 20.8426C119.576 21.1711 118.61 21.3353 117.541 21.3353ZM119.637 10.569C119.054 10.569 118.543 10.6785 118.106 10.8975C117.68 11.1165 117.316 11.4084 117.012 11.7734C116.708 12.1383 116.465 12.558 116.283 13.0325C116.1 13.4948 115.961 13.9814 115.863 14.4923C115.766 15.0033 115.718 15.496 115.718 15.9704C115.718 16.4448 115.797 16.8645 115.955 17.2295C116.113 17.5945 116.362 17.8864 116.702 18.1054C117.054 18.3244 117.522 18.4339 118.106 18.4339C118.689 18.4339 119.194 18.3244 119.619 18.1054C120.056 17.8743 120.421 17.5762 120.713 17.2113C121.017 16.8463 121.26 16.4266 121.442 15.9522C121.624 15.4777 121.764 14.9911 121.861 14.4923C121.959 13.9935 122.007 13.5069 122.007 13.0325C122.007 12.558 121.928 12.1383 121.77 11.7734C121.612 11.4084 121.363 11.1165 121.023 10.8975C120.682 10.6785 120.221 10.569 119.637 10.569Z" fill="white"/>
<path d="M134.271 15.277L135.712 7.85008H139.157L136.568 21.1528H133.214L130.662 13.7259L129.568 19.328C129.507 19.62 129.392 19.8815 129.221 20.1127C129.051 20.3316 128.845 20.5202 128.602 20.6784C128.358 20.8365 128.097 20.9582 127.818 21.0433C127.538 21.1163 127.265 21.1528 126.997 21.1528H125.758L128.346 7.85008H131.719L134.271 15.277Z" fill="white"/>
<path d="M142.352 21.3353C140.906 21.3353 139.623 21.0007 138.505 20.3316L139.125 17.2113C139.636 17.6005 140.176 17.9229 140.748 18.1784C141.331 18.4217 141.987 18.5434 142.717 18.5434C142.911 18.5434 143.112 18.5312 143.318 18.5069C143.537 18.4704 143.737 18.4095 143.92 18.3244C144.114 18.2392 144.278 18.1237 144.412 17.9777C144.558 17.8195 144.655 17.6188 144.704 17.3755C144.728 17.2295 144.728 17.0896 144.704 16.9558C144.692 16.8098 144.643 16.6821 144.558 16.5726C144.448 16.4144 144.303 16.2928 144.12 16.2076C143.938 16.1225 143.75 16.0495 143.555 15.9886C143.02 15.8062 142.504 15.5994 142.006 15.3682C141.519 15.1249 141.094 14.8269 140.729 14.4741C140.377 14.1213 140.116 13.7016 139.945 13.215C139.787 12.7162 139.775 12.1262 139.909 11.4449C140.043 10.7393 140.298 10.1432 140.675 9.65662C141.051 9.17001 141.495 8.78072 142.006 8.48876C142.516 8.18462 143.075 7.97173 143.683 7.85008C144.303 7.71626 144.916 7.64935 145.524 7.64935C146.265 7.64935 146.976 7.71018 147.657 7.83183C148.35 7.94132 149.018 8.13596 149.662 8.41576C149.638 8.54958 149.614 8.68948 149.59 8.83547C149.565 8.96928 149.541 9.1031 149.517 9.23692C149.468 9.46806 149.407 9.68095 149.334 9.8756C149.261 10.0702 149.164 10.2406 149.043 10.3865C148.933 10.5204 148.787 10.6298 148.605 10.715C148.423 10.788 148.198 10.8245 147.931 10.8245C147.773 10.8245 147.633 10.8062 147.511 10.7697C147.134 10.6603 146.752 10.5751 146.363 10.5143C145.986 10.4413 145.591 10.4048 145.178 10.4048C144.995 10.4048 144.813 10.417 144.631 10.4413C144.448 10.4656 144.278 10.5204 144.12 10.6055C143.974 10.6785 143.847 10.7819 143.737 10.9157C143.628 11.0495 143.555 11.2259 143.519 11.4449C143.446 11.8099 143.537 12.0958 143.792 12.3026C144.047 12.5094 144.382 12.6979 144.795 12.8683C145.208 13.0386 145.652 13.221 146.126 13.4157C146.612 13.5982 147.043 13.8476 147.42 14.1639C147.809 14.468 148.101 14.8755 148.295 15.3865C148.502 15.8852 148.526 16.53 148.368 17.3207C148.21 18.1115 147.937 18.7684 147.548 19.2915C147.159 19.8025 146.691 20.21 146.144 20.5141C145.597 20.8183 144.995 21.0312 144.339 21.1528C143.695 21.2745 143.033 21.3353 142.352 21.3353Z" fill="white"/>
<path d="M153.313 19.3098C153.252 19.6017 153.13 19.8633 152.948 20.0944C152.778 20.3134 152.571 20.502 152.328 20.6601C152.085 20.8183 151.824 20.9399 151.544 21.0251C151.265 21.1102 150.997 21.1528 150.742 21.1528H149.284L151.872 7.85008H155.537L153.313 19.3098Z" fill="white"/>
<path d="M163.851 14.0544C164.532 14.2977 165.042 14.6991 165.383 15.2587C165.723 15.8062 165.814 16.4692 165.656 17.2478C165.474 18.1723 165.182 18.8961 164.781 19.4193C164.38 19.9424 163.9 20.3316 163.341 20.5871C162.782 20.8426 162.156 21.0007 161.463 21.0616C160.783 21.1224 160.072 21.1528 159.33 21.1528H155.119L157.708 7.85008H161.737C162.32 7.85008 162.916 7.88658 163.523 7.95957C164.143 8.02039 164.69 8.16638 165.164 8.39752C165.65 8.61649 166.015 8.95104 166.258 9.40115C166.513 9.8391 166.568 10.4352 166.422 11.1894C166.288 11.8585 165.99 12.4425 165.529 12.9412C165.067 13.44 164.508 13.8111 163.851 14.0544ZM161.645 10.3865H160.697L160.205 12.9412H160.734C160.965 12.9412 161.214 12.9291 161.481 12.9047C161.749 12.8804 161.998 12.8257 162.229 12.7405C162.472 12.6554 162.685 12.5276 162.867 12.3573C163.049 12.1748 163.171 11.9315 163.232 11.6274C163.28 11.3476 163.268 11.1286 163.195 10.9705C163.122 10.8002 163.007 10.6724 162.849 10.5873C162.703 10.5021 162.52 10.4474 162.302 10.423C162.095 10.3987 161.876 10.3865 161.645 10.3865ZM160.46 15.5324H159.695L159.093 18.6163H160.114C160.418 18.6163 160.704 18.592 160.971 18.5434C161.238 18.4947 161.475 18.4095 161.682 18.2879C161.889 18.1662 162.065 17.9959 162.211 17.7769C162.356 17.558 162.46 17.2782 162.521 16.9375C162.581 16.6212 162.551 16.3719 162.429 16.1894C162.32 15.9947 162.156 15.8487 161.937 15.7514C161.73 15.6541 161.493 15.5933 161.226 15.5689C160.959 15.5446 160.704 15.5324 160.46 15.5324Z" fill="white"/>
<path d="M173.565 21.1528H166.638L169.208 7.85008H172.836L170.831 18.1784H176.318L176.081 19.3828C176.02 19.6626 175.899 19.9119 175.717 20.1309C175.546 20.3499 175.34 20.5385 175.097 20.6966C174.866 20.8426 174.611 20.9582 174.331 21.0433C174.064 21.1163 173.808 21.1528 173.565 21.1528Z" fill="white"/>
<path d="M183.689 12.9595L186.989 7.83183H191L184.893 16.1711L184.273 19.2915C184.212 19.5835 184.091 19.845 183.908 20.0762C183.738 20.3073 183.531 20.502 183.288 20.6601C183.045 20.8183 182.784 20.9399 182.505 21.0251C182.225 21.1102 181.951 21.1528 181.684 21.1528H180.207L181.192 16.1711L178.311 7.83183H182.395L183.689 12.9595Z" fill="white"/>
</svg>
