<svg width="68" height="32" viewBox="0 0 68 32" fill="none" xmlns="http://www.w3.org/2000/svg">
<path d="M38.6731 17.2977C38.1168 16.3609 36.8286 16.5628 35.7063 16.543L34.7726 19.8764L36.5423 19.8532C37.8598 19.7638 38.813 18.6549 38.6731 17.2977ZM39.9516 11.5545C39.5937 10.7269 38.3445 10.952 37.2938 10.9222L36.5195 13.6829C37.271 13.716 38.029 13.7227 38.7479 13.4744C39.5645 13.1897 40.0785 12.4482 39.9516 11.5545ZM40.4168 14.9243C41.7375 15.444 42.4077 16.6423 42.1182 17.9895C41.6302 20.2372 40.4526 21.8526 38.1949 22.3921C37.3946 22.6007 36.6106 22.604 35.7713 22.6603L30.2052 22.6669L34.2749 8.14161L39.5417 8.1714C40.4558 8.17471 41.3244 8.29719 42.1507 8.64476C42.9087 8.95261 43.4617 9.55176 43.5886 10.3826C43.6439 11.5213 43.26 12.6336 42.5085 13.4645C41.9327 14.1265 41.2789 14.5668 40.4168 14.9243ZM52.359 16.9534L47.1638 16.9601L46.4806 19.4129L52.2842 19.4162L51.7539 21.3825C51.4937 22.1439 50.8495 22.6669 50.0232 22.6669H41.7278L45.7974 8.14492H55.2445L54.6167 10.3561C54.3109 10.8858 53.7741 11.1572 53.1658 11.2334H48.7773L48.0649 13.7955H53.2699L52.359 16.9534ZM60.4007 21.3163C60.1697 22.1174 59.5484 22.6536 58.7611 22.657L56.022 22.6636L59.2231 11.2367L55.2933 11.2334L56.1716 8.12506L68 8.12175L67.1607 11.2301L63.2114 11.2367L60.4007 21.3163Z" fill="#F1C730"/>
<path d="M0 31.7636V31.5948C0.117112 31.5716 0.123619 31.4425 0.175669 31.3333C0.709181 30.2806 3.96556 28.2746 5.31235 27.5034L16.7145 20.9756C18.4907 19.9594 21.3502 18.4102 22.5311 16.9934C22.7849 16.6855 22.9638 16.3049 22.9345 15.8977C22.8174 14.3121 20.9566 13.66 19.4667 13.3919C18.3151 13.1833 17.1927 13.0741 16.0119 13.1105L11.0346 13.2528C9.13477 13.3058 6.83481 13.5143 5.2115 12.71C4.68124 12.4484 4.22906 12.028 4.10219 11.4322C3.48735 8.549 7.39434 6.17557 9.7984 5.06664C13.1914 3.49428 16.7796 2.43501 20.4589 1.84579C21.7276 1.64055 22.8694 2.11392 23.6209 3.11361C24.3724 4.1166 24.8571 5.47049 23.9104 6.10936C23.4875 6.39404 22.9866 6.55624 22.4433 6.55955C20.1628 6.57941 17.954 6.74824 15.7126 7.18188C13.9006 7.53276 11.233 8.20805 9.78539 9.18456C9.67478 9.2607 9.67153 9.40635 9.72358 9.47586C9.75937 9.5189 9.86347 9.5851 9.96106 9.57517L13.3313 9.22429C15.4198 9.00581 17.453 8.95616 19.5382 9.11505C21.051 9.22759 22.4628 9.50234 23.8649 10.0154C25.9274 10.7702 27.3002 12.5147 27.6027 14.7126C27.7654 15.9176 27.5344 17.0099 26.822 18.0196C26.0673 19.0921 25.1011 19.9428 23.9723 20.6346C22.7296 21.3993 21.4869 22.0349 20.1596 22.6804L1.39234 31.7636C0.862077 32.0218 0.283022 32.1311 0 31.7636Z" fill="#DB1D15"/>
<path d="M30.9986 4.34148C29.7234 5.60599 27.6219 5.61923 26.3109 4.45072C25.3122 3.56358 25.2081 2.12363 26.0506 1.11401C27.199 -0.269665 29.551 -0.359042 30.862 0.816089C31.8997 1.74626 32.0559 3.28883 30.9986 4.34148Z" fill="#F1C730"/>
</svg>
