<svg width="600" height="160" viewBox="0 0 600 160" fill="none" xmlns="http://www.w3.org/2000/svg">
<path d="M368.32 22.3221C368.438 21.7596 368.332 21.2605 367.823 20.9488C367.536 20.7636 367.163 20.623 366.801 20.6137L364.571 20.548L363.391 24.7031L365.623 24.6703C367.003 24.5625 368.033 23.6954 368.32 22.3221ZM368.885 16.5383C369.5 16.1985 369.872 15.6407 369.952 14.9775C370.114 14.3119 369.691 13.6885 369.008 13.6651L366.565 13.5831L365.593 17.0327L367.293 16.9906C367.846 16.9765 368.388 16.8312 368.885 16.5383ZM370.501 18.542C371.951 19.1021 372.957 20.3629 372.74 21.9635C372.585 23.0931 372.18 24.1711 371.579 25.146C370.715 26.5545 369.323 27.4216 367.719 27.8153C366.707 28.0379 365.729 28.127 364.667 28.1317L357.604 28.1528L362.757 10.1475L368.746 10.1545L371.466 10.3818C373.063 10.6724 374.589 11.6051 374.559 13.2456C374.514 15.7251 372.865 17.6585 370.501 18.542ZM386.793 17.164L385.651 21.0706L379.087 21.066L378.209 24.1196L385.571 24.1219L384.879 26.585C384.573 27.4919 383.814 28.0708 382.827 28.1504L372.206 28.1481L377.359 10.1428L389.313 10.1475L388.572 12.7394C388.409 13.1683 388.079 13.4846 387.662 13.6674C387.264 13.8807 386.843 13.9885 386.377 13.9744L381.115 13.9721L380.204 17.157L386.793 17.164ZM405.465 10.0959C405.467 10.1475 405.462 10.199 405.448 10.2459L404.393 13.9838L399.407 13.9908L395.901 26.2873C395.67 27.3653 394.801 28.1434 393.691 28.1457L390.303 28.1481L394.358 13.9932L389.384 13.9862L390.5 10.1217L405.465 10.0959ZM231.222 0C231.229 0.0234356 231.255 0.0585886 231.306 0.0656187C232.19 0.187482 232.976 0.52495 233.626 1.12255C234.858 2.25682 234.99 4.0918 233.789 5.33621C232.19 6.99308 229.359 7.03292 227.687 5.45807C226.354 4.20428 226.455 2.2615 227.776 1.08037C228.461 0.466362 229.269 0.182795 230.145 0H231.222ZM195.358 39.69V39.779H194.812V39.704L195.358 39.69Z" fill="#F1C730"/>
<path d="M195.358 39.69L194.812 39.704C194.173 39.3923 194.75 38.6002 195.417 37.9979C197.011 36.5567 201.008 34.1874 203.109 33.0179L215.428 26.1561C217.234 25.1507 218.987 24.1852 220.687 23.0392C221.782 22.3033 223.504 21.0824 223.506 19.8825C223.509 18.085 221.596 17.2062 219.924 16.8054C216.709 16.0368 212.409 16.2992 208.982 16.4398C207.388 16.5055 205.876 16.5781 204.286 16.5031C202.569 16.4258 200.08 15.936 199.658 14.2557C199.427 13.3394 199.646 12.4043 200.08 11.5747C201.681 8.50233 206.592 6.27598 209.856 5.07375C212.821 3.98166 215.817 3.14503 218.923 2.55914C220.647 2.23574 222.263 1.97326 223.647 3.15909C224.703 4.06369 225.711 5.64088 225.275 6.94857C225.013 7.74068 223.725 8.16955 222.75 8.17189C219.347 8.18361 216.019 8.50936 212.708 9.27569C210.935 9.68815 208.094 10.492 206.759 11.4903C206.667 11.5606 206.721 11.7411 206.773 11.7856C206.825 11.8325 206.933 11.9215 207.058 11.9098L211.137 11.4927C215.753 11.0193 224.166 10.7896 227.465 14.2252C228.97 15.793 229.691 17.9842 229.392 20.145C229.269 21.0285 228.831 21.8042 228.313 22.5119C227.317 23.8712 226.038 24.9023 224.585 25.76C222.913 26.7467 221.226 27.5646 219.46 28.3989L206.064 34.7334L196.663 39.2189C196.206 39.4369 195.803 39.6829 195.358 39.69Z" fill="#DB1D15"/>
<path d="M237.849 28.4503C235.97 28.4503 234.335 28.0073 232.948 27.1168L234.053 22.9641C234.679 23.482 235.355 23.9085 236.083 24.2389C236.808 24.5717 237.644 24.7358 238.593 24.7358C238.845 24.7358 239.111 24.717 239.392 24.6748C239.67 24.635 239.936 24.5577 240.19 24.4452C240.442 24.3327 240.666 24.1733 240.864 23.9718C241.059 23.7702 241.2 23.5078 241.287 23.182C241.335 22.9875 241.351 22.7977 241.342 22.6125C241.33 22.4251 241.276 22.261 241.174 22.1134C241.047 21.9048 240.871 21.7431 240.642 21.6283C240.414 21.5158 240.176 21.4173 239.929 21.3377C239.25 21.0939 238.605 20.8151 237.988 20.4987C237.371 20.1846 236.846 19.7909 236.415 19.3222C235.981 18.8535 235.682 18.2911 235.517 17.6349C235.35 16.9787 235.388 16.1983 235.628 15.2914C235.868 14.3516 236.257 13.5595 236.794 12.9127C237.331 12.2659 237.946 11.7433 238.638 11.3449C239.33 10.9488 240.082 10.6652 240.892 10.4965C241.7 10.3254 242.5 10.2411 243.292 10.2411C244.255 10.2411 245.176 10.3184 246.059 10.4707C246.94 10.6254 247.785 10.8879 248.595 11.2605C248.551 11.4386 248.506 11.6214 248.461 11.8065C248.416 11.994 248.372 12.1745 248.327 12.3526C248.242 12.6619 248.141 12.9455 248.028 13.2033C247.915 13.4634 247.776 13.686 247.613 13.8712C247.448 14.0587 247.246 14.204 247.001 14.3094C246.756 14.4149 246.459 14.4664 246.113 14.4664C245.908 14.4664 245.727 14.4407 245.571 14.3938C245.093 14.2485 244.608 14.1313 244.118 14.0423C243.626 13.9532 243.113 13.9087 242.576 13.9087C242.338 13.9087 242.1 13.9227 241.86 13.9555C241.622 13.9884 241.398 14.0587 241.193 14.1618C240.988 14.2672 240.809 14.4102 240.654 14.5883C240.499 14.7664 240.388 15.0008 240.32 15.2914C240.188 15.7765 240.279 16.1585 240.59 16.4327C240.904 16.7092 241.32 16.9599 241.841 17.1849C242.361 17.4122 242.924 17.6513 243.53 17.902C244.135 18.1528 244.672 18.4856 245.14 18.898C245.609 19.3105 245.948 19.8519 246.16 20.5245C246.372 21.1947 246.337 22.0571 246.057 23.1094C245.774 24.1616 245.355 25.0334 244.801 25.72C244.246 26.409 243.598 26.9551 242.858 27.3582C242.117 27.7636 241.318 28.0472 240.463 28.2089C239.606 28.3706 238.735 28.4503 237.849 28.4503ZM302.323 28.2159C300.443 28.2159 298.809 27.7706 297.419 26.8801L298.526 22.7297C299.153 23.2476 299.829 23.6718 300.554 24.0022C301.282 24.335 302.118 24.5014 303.067 24.5014C303.319 24.5014 303.585 24.4803 303.863 24.4405C304.143 24.4006 304.409 24.3233 304.661 24.2085C304.916 24.096 305.139 23.939 305.337 23.7351C305.533 23.5335 305.674 23.2711 305.761 22.9477C305.806 22.7531 305.825 22.5633 305.813 22.3758C305.803 22.1907 305.747 22.0243 305.648 21.879C305.521 21.6681 305.344 21.5064 305.116 21.3939C304.887 21.2791 304.649 21.183 304.402 21.101C303.724 20.8596 303.076 20.5807 302.459 20.2643C301.842 19.9479 301.319 19.5566 300.886 19.0855C300.455 18.6168 300.156 18.0544 299.989 17.3982C299.824 16.7443 299.862 15.9616 300.099 15.057C300.342 14.1173 300.731 13.3251 301.268 12.676C301.805 12.0292 302.419 11.5066 303.109 11.1105C303.802 10.7145 304.553 10.4309 305.363 10.2598C306.173 10.0911 306.974 10.0067 307.763 10.0067C308.726 10.0067 309.649 10.0817 310.53 10.2364C311.411 10.391 312.259 10.6535 313.069 11.0261C313.024 11.2042 312.98 11.387 312.935 11.5722C312.89 11.7573 312.845 11.9401 312.801 12.1182C312.713 12.4252 312.615 12.7088 312.501 12.9666C312.388 13.2267 312.249 13.4493 312.087 13.6345C311.922 13.822 311.717 13.9673 311.475 14.0727C311.23 14.1782 310.933 14.2297 310.587 14.2297C310.38 14.2297 310.201 14.2063 310.045 14.1571C309.567 14.0118 309.082 13.8946 308.59 13.8056C308.1 13.7165 307.584 13.672 307.047 13.672C306.811 13.672 306.574 13.6884 306.333 13.7212C306.093 13.754 305.872 13.822 305.667 13.9274C305.462 14.0329 305.283 14.1735 305.128 14.3516C304.972 14.5297 304.859 14.7641 304.791 15.057C304.661 15.5421 304.753 15.9218 305.064 16.1983C305.377 16.4725 305.792 16.7233 306.312 16.9506C306.835 17.1779 307.398 17.4146 308.003 17.6653C308.608 17.9161 309.145 18.2489 309.614 18.6613C310.08 19.0738 310.42 19.6175 310.634 20.2878C310.846 20.9603 310.81 21.8228 310.528 22.875C310.248 23.9273 309.828 24.7967 309.275 25.4834C308.719 26.1723 308.071 26.7184 307.33 27.1238C306.59 27.5292 305.792 27.8105 304.934 27.9722C304.077 28.1339 303.208 28.2159 302.323 28.2159ZM253.953 27.0441C252.719 27.9651 251.438 28.4268 250.11 28.4268C249.384 28.4268 248.774 28.326 248.285 28.1245C247.792 27.9206 247.427 27.6089 247.192 27.1894C246.952 26.7676 246.843 26.2169 246.86 25.5373C246.876 24.8576 247.008 24.0491 247.248 23.1094L249.215 15.582H253.527L251.626 22.868C251.513 23.3203 251.45 23.6812 251.431 23.9483C251.41 24.2155 251.436 24.4124 251.506 24.5436C251.615 24.785 251.93 24.9068 252.451 24.9068C252.908 24.9068 253.388 24.7123 253.89 24.3233C254.389 23.9671 254.705 23.564 254.832 23.1094L256.798 15.582H261.228L258.518 25.8771C258.428 26.2169 258.273 26.5286 258.046 26.8121C257.82 27.0957 257.554 27.3394 257.248 27.541C256.94 27.7425 256.6 27.9042 256.228 28.0261C255.856 28.1479 255.482 28.2089 255.103 28.2089H253.68L253.953 27.0441ZM268.204 18.7387C267.95 18.7387 267.691 18.7879 267.422 18.884C267.156 18.9824 266.902 19.1113 266.659 19.273C266.419 19.4347 266.209 19.6222 266.028 19.8308C265.847 20.0417 265.724 20.269 265.658 20.5127L264.902 23.4257C264.836 23.6695 264.836 23.8991 264.9 24.1171C264.963 24.335 265.072 24.5272 265.225 24.6889C265.38 24.8506 265.569 24.9795 265.79 25.0756C266.012 25.174 266.249 25.2232 266.501 25.2232C266.913 25.2232 267.274 25.1248 267.589 24.9303C267.905 24.7358 268.178 24.485 268.414 24.178C268.649 23.871 268.849 23.5218 269.012 23.1328C269.172 22.7461 269.309 22.3571 269.415 21.9681C269.523 21.565 269.598 21.1666 269.643 20.7799C269.688 20.3909 269.674 20.0417 269.601 19.7347C269.528 19.4277 269.384 19.184 269.167 19.0058C268.951 18.8277 268.63 18.7387 268.204 18.7387ZM266.57 16.749C267.156 16.3108 267.764 15.9686 268.397 15.7155C269.033 15.4648 269.697 15.3406 270.392 15.3406C271.372 15.3406 272.139 15.5398 272.695 15.9358C273.251 16.3319 273.64 16.8498 273.863 17.4896C274.085 18.1294 274.174 18.8418 274.134 19.6245C274.092 20.4096 273.974 21.1924 273.774 21.9681C273.578 22.7297 273.289 23.5031 272.907 24.2882C272.528 25.0732 272.05 25.7833 271.475 26.4231C270.898 27.0629 270.232 27.5902 269.476 28.0026C268.72 28.4151 267.867 28.6213 266.921 28.6213C266.287 28.6213 265.727 28.5206 265.234 28.319C264.744 28.1151 264.306 27.8292 263.922 27.4566L262.969 31.1711C262.86 31.5601 262.686 31.8999 262.443 32.1905C262.201 32.4811 261.918 32.7295 261.596 32.9311C261.273 33.1326 260.932 33.2873 260.566 33.3928C260.204 33.4982 259.865 33.5498 259.549 33.5498H257.915L262.627 15.582H266.845L266.57 16.749ZM282.078 18.4481C281.383 18.4481 280.853 18.6262 280.488 18.9824C280.121 19.3386 279.812 19.8331 279.563 20.4635H283.331C283.453 19.8636 283.432 19.3785 283.27 19.0058C283.107 18.6332 282.709 18.4481 282.078 18.4481ZM286.656 23.2804H278.837C278.809 23.6835 278.845 24.0163 278.943 24.2741C279.042 24.5342 279.207 24.7358 279.433 24.8834C279.659 25.0287 279.944 25.1295 280.288 25.1857C280.63 25.242 281.023 25.2701 281.466 25.2701C282.019 25.2701 282.632 25.2021 283.305 25.0639C283.979 24.9279 284.718 24.7451 285.526 24.5178L285.192 25.8302C285.038 26.4278 284.768 26.9012 284.379 27.2504C283.99 27.5972 283.55 27.8597 283.055 28.0378C282.561 28.2159 282.045 28.3307 281.513 28.3776C280.981 28.4268 280.493 28.4526 280.05 28.4526C277.886 28.4526 276.322 27.9089 275.359 26.8238C274.396 25.7411 274.198 24.096 274.768 21.8954C275.029 20.8924 275.394 19.9854 275.865 19.1769C276.334 18.3661 276.906 17.6794 277.577 17.1123C278.251 16.5451 279.026 16.1092 279.9 15.8022C280.776 15.4929 281.751 15.3406 282.825 15.3406C283.915 15.3406 284.801 15.4929 285.481 15.8022C286.159 16.1092 286.671 16.5451 287.007 17.1123C287.346 17.6794 287.523 18.3637 287.535 19.1652C287.549 19.9643 287.424 20.8596 287.163 21.8462C287.073 22.2048 286.906 22.6805 286.656 23.2804ZM294.212 17.3115C294.932 16.7303 295.735 16.285 296.619 15.978C297.502 15.671 298.425 15.4999 299.393 15.4671L298.474 18.9637C297.083 18.9965 295.886 19.3269 294.885 19.9597C293.882 20.5901 293.218 21.5298 292.893 22.7766L291.451 28.2862H286.925L290.203 15.7108H292.572C292.794 15.7108 293.013 15.7437 293.23 15.8069C293.446 15.8726 293.637 15.9733 293.799 16.1116C293.964 16.2475 294.087 16.4186 294.167 16.6201C294.247 16.824 294.261 17.0537 294.212 17.3115ZM319.209 18.7387C318.957 18.7387 318.698 18.7879 318.429 18.884C318.161 18.9824 317.906 19.1113 317.666 19.273C317.426 19.4347 317.214 19.6222 317.035 19.8308C316.854 20.0417 316.729 20.269 316.665 20.5127L315.909 23.4257C315.843 23.6695 315.843 23.8991 315.907 24.1171C315.968 24.335 316.079 24.5272 316.232 24.6889C316.387 24.8506 316.576 24.9795 316.797 25.0756C317.019 25.174 317.256 25.2232 317.508 25.2232C317.918 25.2232 318.283 25.1248 318.596 24.9303C318.91 24.7358 319.185 24.485 319.421 24.178C319.656 23.871 319.854 23.5218 320.017 23.1328C320.179 22.7461 320.313 22.3571 320.422 21.9681C320.53 21.565 320.605 21.1666 320.65 20.7799C320.695 20.3909 320.681 20.0417 320.608 19.7347C320.535 19.4277 320.389 19.184 320.174 19.0058C319.958 18.8277 319.637 18.7387 319.209 18.7387ZM317.577 16.749C318.161 16.3108 318.771 15.9686 319.404 15.7155C320.038 15.4648 320.704 15.3406 321.399 15.3406C322.379 15.3406 323.147 15.5398 323.702 15.9358C324.256 16.3319 324.647 16.8498 324.868 17.4896C325.092 18.1294 325.181 18.8418 325.141 19.6245C325.099 20.4096 324.979 21.1924 324.781 21.9681C324.583 22.7297 324.296 23.5031 323.914 24.2882C323.535 25.0732 323.057 25.7833 322.48 26.4231C321.905 27.0629 321.239 27.5902 320.483 28.0026C319.727 28.4151 318.874 28.6213 317.925 28.6213C317.294 28.6213 316.734 28.5206 316.241 28.319C315.751 28.1151 315.313 27.8292 314.93 27.4566L313.973 31.1711C313.867 31.5601 313.693 31.8999 313.451 32.1905C313.208 32.4811 312.925 32.7295 312.603 32.9311C312.28 33.1326 311.939 33.2873 311.576 33.3928C311.211 33.4982 310.872 33.5498 310.556 33.5498H308.922L313.632 15.582H317.85L317.577 16.749ZM333.229 18.6004C332.772 18.6004 332.386 18.6965 332.07 18.891C331.757 19.0855 331.486 19.3386 331.258 19.655C331.029 19.9714 330.838 20.3276 330.683 20.7237C330.527 21.1221 330.396 21.5298 330.285 21.9493C330.177 22.3712 330.094 22.7836 330.042 23.189C329.988 23.5921 329.991 23.953 330.047 24.2694C330.104 24.5834 330.243 24.8389 330.466 25.0334C330.688 25.2279 331.022 25.324 331.462 25.324C331.905 25.324 332.287 25.2279 332.609 25.0334C332.932 24.8389 333.208 24.5834 333.436 24.2694C333.662 23.953 333.851 23.5921 333.999 23.189C334.147 22.7836 334.274 22.3712 334.385 21.9493C334.493 21.5298 334.578 21.1221 334.639 20.7237C334.701 20.3276 334.701 19.9714 334.647 19.655C334.59 19.3386 334.451 19.0855 334.227 18.891C334.004 18.6965 333.672 18.6004 333.229 18.6004ZM330.615 28.5299C329.557 28.5299 328.665 28.3753 327.935 28.0683C327.207 27.7613 326.642 27.3254 326.241 26.7582C325.841 26.1911 325.605 25.4998 325.539 24.6819C325.471 23.864 325.568 22.9547 325.831 21.9493C326.093 20.9463 326.47 20.0393 326.964 19.2308C327.456 18.4223 328.052 17.7333 328.747 17.1662C329.444 16.6014 330.238 16.1631 331.13 15.8561C332.021 15.5491 332.996 15.3945 334.053 15.3945C335.111 15.3945 336.005 15.5491 336.733 15.8561C337.461 16.1631 338.026 16.6014 338.427 17.1662C338.829 17.7333 339.062 18.4223 339.131 19.2308C339.199 20.0393 339.102 20.9463 338.839 21.9493C338.577 22.9547 338.198 23.864 337.706 24.6819C337.211 25.4998 336.618 26.1911 335.921 26.7582C335.224 27.3254 334.43 27.7613 333.54 28.0683C332.647 28.3753 331.672 28.5299 330.615 28.5299ZM345.897 17.2341C346.618 16.6506 347.421 16.2053 348.304 15.8983C349.187 15.5913 350.11 15.4226 351.078 15.3874L350.16 18.884C348.768 18.9168 347.571 19.2496 346.571 19.88C345.567 20.5127 344.905 21.4501 344.578 22.6969L343.137 28.2089H338.61L341.891 15.6312H344.26C344.482 15.6312 344.698 15.664 344.915 15.7296C345.132 15.7929 345.322 15.896 345.487 16.0319C345.65 16.1702 345.772 16.3389 345.852 16.5428C345.932 16.7443 345.946 16.9764 345.897 17.2341ZM353.012 11.5628H355.405C355.939 11.5628 356.375 11.7245 356.707 12.0503C357.039 12.3737 357.138 12.7932 357.006 13.3111L356.417 15.5702H359.592L359.173 17.1006C359.109 17.3419 358.998 17.5646 358.841 17.7685C358.683 17.97 358.497 18.1481 358.28 18.3028C358.063 18.4551 357.826 18.577 357.567 18.666C357.307 18.7551 357.053 18.7996 356.799 18.7996H355.567L354.394 23.2172C354.265 23.721 354.185 24.1077 354.156 24.3842C354.128 24.6584 354.135 24.8459 354.175 24.942C354.201 25.0076 354.281 25.0685 354.411 25.1248C354.54 25.181 354.764 25.2092 355.08 25.2092C355.442 25.2092 355.812 25.1763 356.189 25.1131C356.563 25.0475 357.034 24.935 357.6 24.7709L356.686 28.244C356.059 28.3729 355.473 28.4667 354.922 28.5229C354.373 28.5791 353.815 28.6096 353.247 28.6096C352.425 28.6096 351.733 28.5182 351.168 28.3425C350.605 28.1643 350.186 27.8808 349.915 27.4918C349.642 27.1191 349.505 26.6059 349.505 25.9497C349.505 25.2935 349.625 24.5131 349.865 23.6062L351.114 18.7996L353.012 11.5628Z" fill="white"/>
<path d="M25.2913 143.717C15.7821 143.717 7.35165 141.522 0 137.132L4.07537 116.659C7.43156 119.213 10.9875 121.328 14.7433 123.005C18.5789 124.601 22.894 125.399 27.6886 125.399C28.9671 125.399 30.2856 125.319 31.6441 125.16C33.0824 124.92 34.4009 124.521 35.5996 123.962C36.8781 123.404 37.9569 122.645 38.8359 121.688C39.7948 120.65 40.4341 119.333 40.7537 117.737C40.9135 116.779 40.9135 115.861 40.7537 114.983C40.6738 114.025 40.3542 113.187 39.7948 112.469C39.0756 111.431 38.1167 110.633 36.9181 110.074C35.7194 109.515 34.4808 109.037 33.2023 108.637C29.6863 107.44 26.2901 106.083 23.0139 104.567C19.8175 102.97 17.0207 101.015 14.6234 98.7002C12.306 96.3855 10.588 93.6318 9.46925 90.4391C8.43043 87.1666 8.35052 83.2955 9.22952 78.8257C10.1085 74.1963 11.7866 70.2852 14.2638 67.0925C16.741 63.8998 19.6577 61.3457 23.0139 59.4301C26.3701 57.4346 30.0459 56.0378 34.0413 55.2396C38.1167 54.3616 42.1521 53.9227 46.1476 53.9227C51.0221 53.9227 55.6968 54.3217 60.1717 55.1199C64.7265 55.8383 69.1215 57.1153 73.3567 58.9511C73.1969 59.8291 73.0371 60.747 72.8773 61.7048C72.7174 62.5828 72.5576 63.4608 72.3978 64.3388C72.0781 65.8554 71.6786 67.2522 71.1992 68.5292C70.7197 69.8063 70.0804 70.9238 69.2813 71.8816C68.5622 72.7596 67.6032 73.4779 66.4046 74.0366C65.206 74.5155 63.7276 74.755 61.9696 74.755C60.9308 74.755 60.0119 74.6353 59.2128 74.3958C56.7356 73.6775 54.2184 73.1187 51.6613 72.7197C49.1841 72.2407 46.5871 72.0013 43.8702 72.0013C42.6715 72.0013 41.4729 72.0811 40.2743 72.2407C39.0756 72.4004 37.9569 72.7596 36.9181 73.3183C35.9592 73.7972 35.1201 74.4756 34.4009 75.3536C33.6818 76.2316 33.2023 77.389 32.9626 78.8257C32.4831 81.2202 33.0824 83.0959 34.7605 84.4528C36.4386 85.8097 38.6361 87.0469 41.353 88.1643C44.07 89.2818 46.9866 90.479 50.1031 91.7561C53.2995 92.9534 56.1363 94.5896 58.6134 96.6649C61.1705 98.6603 63.0884 101.334 64.3669 104.687C65.7254 107.959 65.8852 112.189 64.8464 117.377C63.8075 122.566 62.0096 126.876 59.4525 130.308C56.8954 133.66 53.8189 136.334 50.223 138.33C46.6271 140.325 42.6715 141.722 38.3564 142.52C34.1213 143.318 29.7662 143.717 25.2913 143.717Z" fill="#F1C730"/>
<path d="M134.753 134.738C139.788 137.531 144.103 141.083 147.699 145.393C151.374 149.704 154.171 154.572 156.089 160H130.558C130.158 158.962 129.679 157.765 129.12 156.408C128.56 155.051 127.921 153.734 127.202 152.457C126.563 151.18 125.843 149.983 125.044 148.865C124.245 147.828 123.366 146.99 122.407 146.351C121.528 145.792 120.41 145.314 119.051 144.914C117.693 144.595 116.254 144.356 114.736 144.196C113.218 144.037 111.699 143.917 110.181 143.837C108.743 143.757 107.464 143.717 106.345 143.717C99.4733 143.717 93.6 142.64 88.7255 140.485C83.851 138.33 79.9754 135.297 77.0987 131.385C74.3019 127.395 72.5039 122.645 71.7048 117.138C70.9057 111.631 71.1455 105.525 72.424 98.8199C73.7026 92.1153 75.8202 86.0092 78.7768 80.5018C81.7334 74.9944 85.3693 70.2852 89.6844 66.3742C94.0794 62.3833 99.1537 59.3103 104.907 57.1552C110.661 55.0002 116.973 53.9227 123.846 53.9227C130.718 53.9227 136.591 55.0401 141.466 57.275C146.34 59.43 150.176 62.503 152.973 66.4939C155.769 70.4049 157.567 75.1142 158.366 80.6216C159.165 86.129 158.926 92.1951 157.647 98.8199C156.289 105.684 153.732 112.309 149.976 118.694C146.22 125.08 141.146 130.428 134.753 134.738ZM120.13 73.0788C116.294 73.0788 113.018 73.8371 110.301 75.3536C107.584 76.7903 105.267 78.7459 103.349 81.2202C101.511 83.6147 100.033 86.3684 98.9139 89.4813C97.8751 92.5144 97.0361 95.6272 96.3968 98.8199C95.7575 102.013 95.358 105.165 95.1982 108.278C95.1182 111.311 95.5178 114.065 96.3968 116.539C97.3557 118.934 98.9139 120.889 101.071 122.406C103.229 123.843 106.226 124.561 110.061 124.561C113.897 124.561 117.173 123.843 119.89 122.406C122.607 120.889 124.884 118.934 126.722 116.539C128.56 114.065 129.999 111.311 131.037 108.278C132.156 105.165 133.035 102.013 133.674 98.8199C134.234 95.6272 134.553 92.5144 134.633 89.4813C134.793 86.3684 134.434 83.6147 133.555 81.2202C132.676 78.7459 131.157 76.7903 129 75.3536C126.922 73.8371 123.965 73.0788 120.13 73.0788Z" fill="#F1C730"/>
<path d="M194.166 143.717C188.493 143.717 183.578 143.039 179.423 141.682C175.348 140.325 172.071 138.29 169.594 135.576C167.117 132.782 165.519 129.27 164.8 125.04C164.081 120.73 164.28 115.701 165.399 109.954L176.067 55.1199H199.8L188.773 112.11C187.894 116.579 188.053 119.852 189.252 121.927C190.451 123.923 193.407 124.92 198.122 124.92C200.439 124.92 202.397 124.681 203.995 124.202C205.593 123.643 206.912 122.845 207.951 121.807C209.069 120.77 209.948 119.453 210.588 117.856C211.307 116.26 211.866 114.344 212.266 112.11L223.413 55.1199H246.787L236.119 109.954C233.881 121.528 229.127 130.068 221.855 135.576C214.663 141.003 205.434 143.717 194.166 143.717Z" fill="#F1C730"/>
<path d="M293.122 142.52L291.924 124.202H268.311C267.352 126.756 266.353 129.151 265.314 131.385C264.275 133.541 262.997 135.456 261.478 137.132C260.04 138.808 258.282 140.125 256.204 141.083C254.127 142.041 251.57 142.52 248.533 142.52H235.708L281.975 55.2396H305.708L317.814 142.52H293.122ZM289.167 78.9454L276.461 106.363H290.725L289.167 78.9454Z" fill="#F1C730"/>
<path d="M351.439 142.52H324.949L341.85 55.2396H368.34C375.452 55.2396 381.685 56.0777 387.039 57.7539C392.393 59.3502 396.708 61.8645 399.984 65.2966C403.34 68.7288 405.538 73.1187 406.576 78.4665C407.695 83.8143 407.535 90.1997 406.097 97.6227C403.06 113.107 396.987 124.481 387.878 131.745C378.768 138.928 366.622 142.52 351.439 142.52ZM366.662 72.3605H361.508L351.199 125.399H356.234C360.629 125.399 364.424 124.681 367.621 123.244C370.897 121.807 373.654 119.852 375.891 117.377C378.209 114.903 380.047 111.99 381.405 108.637C382.843 105.205 383.922 101.534 384.641 97.6227C385.361 93.7915 385.6 90.3593 385.361 87.3262C385.121 84.2134 384.282 81.5395 382.843 79.3046C381.405 77.0697 379.327 75.3536 376.61 74.1564C373.973 72.9591 370.657 72.3605 366.662 72.3605Z" fill="#F1C730"/>
<path d="M470.766 143.717C465.093 143.717 460.178 143.039 456.023 141.682C451.948 140.325 448.671 138.29 446.194 135.576C443.717 132.782 442.119 129.27 441.4 125.04C440.681 120.73 440.88 115.701 441.999 109.954L452.667 55.1199H476.4L465.372 112.11C464.493 116.579 464.653 119.852 465.852 121.927C467.051 123.923 470.007 124.92 474.722 124.92C477.039 124.92 478.997 124.681 480.595 124.202C482.193 123.643 483.512 122.845 484.551 121.807C485.669 120.77 486.548 119.453 487.188 117.856C487.907 116.26 488.466 114.344 488.866 112.11L500.013 55.1199H523.387L512.719 109.954C510.481 121.528 505.727 130.068 498.455 135.576C491.263 141.003 482.034 143.717 470.766 143.717Z" fill="#F1C730"/>
<path d="M548.147 114.384L545.03 130.547C544.311 134.299 542.114 137.292 538.438 139.527C535.082 141.522 531.606 142.52 528.01 142.52H519.5L536.52 55.1199H564.568C569.363 55.1199 574.078 55.4791 578.712 56.1974C583.347 56.836 587.382 58.153 590.818 60.1484C594.255 62.1438 596.812 64.9774 598.49 68.649C600.168 72.2407 600.448 76.9899 599.329 82.8964C597.811 90.5588 594.774 96.9841 590.219 102.172C585.744 107.36 579.511 110.872 571.52 112.708C567.445 113.666 563.49 114.185 559.654 114.265C555.898 114.344 552.062 114.384 548.147 114.384ZM562.531 71.8816H556.417L551.383 97.3832H557.496C559.734 97.3832 561.891 97.1837 563.969 96.7846C566.047 96.3057 567.964 95.5873 569.722 94.6295C571.48 93.5919 572.959 92.235 574.157 90.5588C575.436 88.8029 576.315 86.6478 576.794 84.0936C577.274 81.6193 577.194 79.5839 576.555 77.9876C575.915 76.3913 574.917 75.1541 573.558 74.2761C572.2 73.3981 570.521 72.7995 568.524 72.4802C566.606 72.0811 564.608 71.8816 562.531 71.8816Z" fill="#F1C730"/>
</svg>
